<svg width="121" height="133" viewBox="0 0 121 133" fill="none" xmlns="http://www.w3.org/2000/svg">
<mask id="mask0_238_201" style="mask-type:luminance" maskUnits="userSpaceOnUse" x="0" y="0" width="121" height="133">
<path fill-rule="evenodd" clip-rule="evenodd" d="M60.52 27.8C63.9413 27.8 67.2224 26.4409 69.6417 24.0217C72.0609 21.6025 73.42 18.3213 73.42 14.9C73.42 11.4787 72.0609 8.19754 69.6417 5.77832C67.2224 3.3591 63.9413 2 60.52 2C57.0987 2 53.8175 3.3591 51.3983 5.77832C48.9791 8.19754 47.62 11.4787 47.62 14.9C47.62 18.3213 48.9791 21.6025 51.3983 24.0217C53.8175 26.4409 57.0987 27.8 60.52 27.8ZM60.52 79.4C63.9413 79.4 67.2224 78.0409 69.6417 75.6217C72.0609 73.2025 73.42 69.9213 73.42 66.5C73.42 63.0787 72.0609 59.7975 69.6417 57.3783C67.2224 54.9591 63.9413 53.6 60.52 53.6C57.0987 53.6 53.8175 54.9591 51.3983 57.3783C48.9791 59.7975 47.62 63.0787 47.62 66.5C47.62 69.9213 48.9791 73.2025 51.3983 75.6217C53.8175 78.0409 57.0987 79.4 60.52 79.4ZM94.0342 47.15C95.7448 50.1133 98.5626 52.2756 101.868 53.1614C105.172 54.0471 108.694 53.5837 111.657 51.873C114.62 50.1624 116.783 47.3446 117.669 44.0397C118.554 40.7347 118.091 37.2133 116.38 34.25C114.657 31.3113 111.842 29.1733 108.549 28.3026C105.256 27.4319 101.752 27.8992 98.8015 29.6025C95.8514 31.3057 93.6948 34.1067 92.8023 37.3942C91.9097 40.6817 92.3537 44.1887 94.0374 47.15H94.0342ZM94.0342 85.85C93.1872 87.3173 92.6374 88.937 92.4164 90.6167C92.1953 92.2964 92.3073 94.0032 92.7458 95.6397C93.1844 97.2761 93.941 98.8102 94.9724 100.154C96.0039 101.498 97.2899 102.626 98.7572 103.473C101.72 105.184 105.242 105.647 108.547 104.761C111.852 103.876 114.67 101.713 116.38 98.75C118.064 95.7887 118.508 92.2816 117.615 88.9942C116.723 85.7067 114.566 82.9057 111.616 81.2025C108.666 79.4992 105.162 79.0319 101.869 79.9026C98.5754 80.7733 95.7602 82.9113 94.0374 85.85H94.0342ZM60.52 105.2C57.0987 105.2 53.8175 106.559 51.3983 108.978C48.9791 111.398 47.62 114.679 47.62 118.1C47.62 121.521 48.9791 124.802 51.3983 127.222C53.8175 129.641 57.0987 131 60.52 131C63.9413 131 67.2224 129.641 69.6417 127.222C72.0609 124.802 73.42 121.521 73.42 118.1C73.42 114.679 72.0609 111.398 69.6417 108.978C67.2224 106.559 63.9413 105.2 60.52 105.2ZM27.0058 85.85C26.1649 84.3711 25.0399 83.0731 23.6953 82.0307C22.3508 80.9884 20.8133 80.2223 19.1715 79.7765C17.5297 79.3308 15.8159 79.2142 14.1289 79.4335C12.4418 79.6528 10.8148 80.2036 9.34146 81.0542C7.86814 81.9049 6.57763 83.0386 5.54423 84.39C4.51083 85.7414 3.75495 87.2839 3.32011 88.9286C2.88527 90.5734 2.78005 92.2879 3.01052 93.9735C3.24099 95.659 3.80259 97.2824 4.66299 98.75C6.38579 101.689 9.20102 103.827 12.4943 104.697C15.7877 105.568 19.2917 105.101 22.2417 103.398C25.1918 101.694 27.3484 98.8933 28.2409 95.6058C29.1335 92.3183 28.6895 88.8113 27.0058 85.85ZM27.0058 47.15C27.8662 45.6824 28.4278 44.059 28.6583 42.3735C28.8887 40.6879 28.7835 38.9734 28.3487 37.3286C27.9138 35.6839 27.1579 34.1414 26.1245 32.79C25.0911 31.4386 23.8006 30.3049 22.3273 29.4543C20.854 28.6036 19.227 28.0528 17.5399 27.8335C15.8529 27.6142 14.1391 27.7308 12.4973 28.1766C10.8554 28.6223 9.318 29.3884 7.97346 30.4307C6.62892 31.4731 5.50384 32.7711 4.66299 34.25C2.97932 37.2113 2.5353 40.7183 3.42783 44.0058C4.32035 47.2933 6.47696 50.0943 9.42703 51.7975C12.3771 53.5008 15.8811 53.9681 19.1744 53.0974C22.4677 52.2267 25.283 50.0887 27.0058 47.15Z" fill="white" stroke="white" stroke-width="4" stroke-linecap="round" stroke-linejoin="round"/>
</mask>
<g mask="url(#mask0_238_201)">
<path d="M-16.8809 -10.9H137.919V143.9H-16.8809V-10.9Z" fill="#1D2323"/>
</g>
</svg>
