<svg width="140" height="140" viewBox="0 0 140 140" fill="none" xmlns="http://www.w3.org/2000/svg">
<path d="M112.778 70C109.684 70 106.716 68.7708 104.528 66.5829C102.34 64.395 101.111 61.4275 101.111 58.3333C101.111 55.2391 102.34 52.2717 104.528 50.0838C106.716 47.8958 109.684 46.6667 112.778 46.6667C115.872 46.6667 118.839 47.8958 121.027 50.0838C123.215 52.2717 124.444 55.2391 124.444 58.3333C124.444 61.4275 123.215 64.395 121.027 66.5829C118.839 68.7708 115.872 70 112.778 70ZM89.4444 38.8889C86.3503 38.8889 83.3828 37.6597 81.1949 35.4718C79.0069 33.2839 77.7778 30.3164 77.7778 27.2222C77.7778 24.128 79.0069 21.1606 81.1949 18.9726C83.3828 16.7847 86.3503 15.5556 89.4444 15.5556C92.5386 15.5556 95.5061 16.7847 97.694 18.9726C99.8819 21.1606 101.111 24.128 101.111 27.2222C101.111 30.3164 99.8819 33.2839 97.694 35.4718C95.5061 37.6597 92.5386 38.8889 89.4444 38.8889ZM50.5556 38.8889C47.4614 38.8889 44.4939 37.6597 42.306 35.4718C40.118 33.2839 38.8889 30.3164 38.8889 27.2222C38.8889 24.128 40.118 21.1606 42.306 18.9726C44.4939 16.7847 47.4614 15.5556 50.5556 15.5556C53.6497 15.5556 56.6172 16.7847 58.8051 18.9726C60.9931 21.1606 62.2222 24.128 62.2222 27.2222C62.2222 30.3164 60.9931 33.2839 58.8051 35.4718C56.6172 37.6597 53.6497 38.8889 50.5556 38.8889ZM27.2222 70C24.128 70 21.1606 68.7708 18.9726 66.5829C16.7847 64.395 15.5556 61.4275 15.5556 58.3333C15.5556 55.2391 16.7847 52.2717 18.9726 50.0838C21.1606 47.8958 24.128 46.6667 27.2222 46.6667C30.3164 46.6667 33.2839 47.8958 35.4718 50.0838C37.6597 52.2717 38.8889 55.2391 38.8889 58.3333C38.8889 61.4275 37.6597 64.395 35.4718 66.5829C33.2839 68.7708 30.3164 70 27.2222 70ZM70 0C51.4348 0 33.6301 7.37498 20.5025 20.5025C7.37498 33.6301 0 51.4348 0 70C0 88.5652 7.37498 106.37 20.5025 119.497C33.6301 132.625 51.4348 140 70 140C73.0942 140 76.0617 138.771 78.2496 136.583C80.4375 134.395 81.6667 131.428 81.6667 128.333C81.6667 125.3 80.5 122.578 78.6333 120.556C76.8444 118.456 75.6778 115.733 75.6778 112.778C75.6778 109.684 76.9069 106.716 79.0949 104.528C81.2828 102.34 84.2502 101.111 87.3444 101.111H101.111C111.425 101.111 121.317 97.0139 128.61 89.7208C135.903 82.4277 140 72.5362 140 62.2222C140 27.8444 108.656 0 70 0Z" fill="#1D2323"/>
</svg>
