<svg width="33" height="34" viewBox="0 0 33 34" fill="none" xmlns="http://www.w3.org/2000/svg">
<path fill-rule="evenodd" clip-rule="evenodd" d="M16.2111 0.325891C25.0478 0.364914 32.1783 7.78343 32.1381 16.8962C32.1303 19.3274 31.6 21.7267 30.5854 23.9216L32.0403 31.414C32.0921 31.6816 32.0788 31.9582 32.0015 32.2191C31.9242 32.48 31.7854 32.7172 31.5975 32.9092C31.4096 33.1013 31.1784 33.2424 30.9247 33.3197C30.671 33.3971 30.4027 33.4084 30.1438 33.3527L22.8914 31.7861C20.8166 32.7835 18.5005 33.3342 16.0654 33.3235C7.22865 33.2845 0.0981364 25.8676 0.138386 16.7532C0.178622 7.64212 7.37438 0.285217 16.2111 0.324241L16.2111 0.325891Z" fill="#D9D9D9"/>
</svg>
