<svg width="141" height="140" viewBox="0 0 141 140" fill="none" xmlns="http://www.w3.org/2000/svg">
<path d="M88.679 0C80.4921 0.00733842 72.4229 1.95013 65.1304 5.66974C57.8378 9.38935 51.5287 14.7803 46.7181 21.4025C41.9074 28.0247 38.7317 35.6903 37.4502 43.7735C36.1686 51.8567 36.8176 60.1283 39.3442 67.913L2.0172 105.22C1.53567 105.702 1.15383 106.274 0.893506 106.904C0.63318 107.533 0.499466 108.208 0.500002 108.889V134.815C0.500002 136.19 1.04649 137.509 2.01924 138.481C2.99199 139.454 4.31132 140 5.687 140H31.622C32.9977 140 34.317 139.454 35.2898 138.481C36.2625 137.509 36.809 136.19 36.809 134.815V124.444H47.183C48.5587 124.444 49.878 123.898 50.8508 122.926C51.8235 121.953 52.37 120.634 52.37 119.259V108.889H62.744C63.4254 108.889 64.1002 108.756 64.7299 108.496C65.3595 108.235 65.9317 107.854 66.4138 107.372L72.6123 101.169C79.7413 103.483 87.2873 104.225 94.7306 103.344C102.174 102.463 109.338 99.9792 115.729 96.0647C122.12 92.1502 127.587 86.8975 131.752 80.6684C135.918 74.4394 138.683 67.3818 139.858 59.9817C141.034 52.5817 140.591 45.0149 138.56 37.8024C136.529 30.59 132.958 23.9032 128.094 18.2025C123.23 12.5018 117.188 7.92263 110.384 4.78029C103.579 1.63794 96.1744 0.00708238 88.679 0ZM101.647 49.2593C99.5947 49.2593 97.589 48.651 95.883 47.5115C94.177 46.372 92.8474 44.7524 92.0622 42.8575C91.277 40.9625 91.0716 38.8774 91.4718 36.8657C91.8721 34.8541 92.8602 33.0063 94.311 31.5559C95.7618 30.1056 97.6103 29.1179 99.6226 28.7178C101.635 28.3176 103.721 28.523 105.616 29.3079C107.512 30.0928 109.132 31.422 110.272 33.1274C111.412 34.8328 112.021 36.8378 112.021 38.8889C112.021 41.6393 110.928 44.277 108.982 46.2218C107.037 48.1667 104.398 49.2593 101.647 49.2593Z" fill="#1D2323"/>
</svg>
