<svg width="208" height="309" viewBox="0 0 208 309" fill="none" xmlns="http://www.w3.org/2000/svg">
<rect x="1.36035" width="206" height="308" rx="15" transform="rotate(0.253022 1.36035 0)" fill="url(#paint0_linear_38_2117)"/>
<circle cx="28.7165" cy="32.6211" r="17.5" transform="rotate(0.253022 28.7165 32.6211)" fill="#D9D9D9"/>
<rect x="11.0864" y="62.0435" width="186" height="186" transform="rotate(0.253022 11.0864 62.0435)" fill="#D9D9D9"/>
<path d="M27.5704 292.119L25.0431 289.806C16.0667 281.622 10.1405 276.207 10.1696 269.633C10.1934 264.244 14.4469 260.06 19.8368 260.084C22.8818 260.098 25.798 261.523 27.6957 263.746C29.613 261.54 32.5417 260.14 35.5867 260.154C40.9766 260.177 45.193 264.399 45.1692 269.787C45.1402 276.362 39.1664 281.724 30.1181 289.828L27.5704 292.119Z" fill="#D9D9D9"/>
<path fill-rule="evenodd" clip-rule="evenodd" d="M74.2111 260.326C83.0478 260.365 90.1783 267.783 90.1381 276.896C90.1303 279.327 89.6 281.727 88.5854 283.922L90.0403 291.414C90.0921 291.682 90.0788 291.958 90.0015 292.219C89.9242 292.48 89.7854 292.717 89.5975 292.909C89.4096 293.101 89.1784 293.242 88.9247 293.32C88.671 293.397 88.4027 293.408 88.1438 293.353L80.8914 291.786C78.8166 292.783 76.5005 293.334 74.0654 293.323C65.2286 293.284 58.0981 285.868 58.1384 276.753C58.1786 267.642 65.3744 260.285 74.2111 260.324L74.2111 260.326Z" fill="#D9D9D9"/>
<path d="M103.782 271.627C102.956 271.346 102.952 270.9 103.804 270.62L134.068 260.669C134.907 260.394 135.384 260.865 135.146 261.686L126.379 291.906C126.136 292.743 125.653 292.77 125.302 291.972L119.668 279.123L129.224 266.482L116.515 275.939L103.782 271.627Z" fill="#D9D9D9"/>
<defs>
<linearGradient id="paint0_linear_38_2117" x1="104.36" y1="0" x2="104.36" y2="308" gradientUnits="userSpaceOnUse">
<stop stop-color="#ABABAB"/>
<stop offset="1" stop-color="#C5C5C5" stop-opacity="0"/>
</linearGradient>
</defs>
</svg>
