<svg width="512" height="512" viewBox="0 0 512 512" fill="none" xmlns="http://www.w3.org/2000/svg">
<path d="M93.8 114.6C89.1 115.7 92.1 115.5 88.2 116C71.5 119.6 83.9 122.8 93.8 114.6ZM387.5 121.3C388.7 120.5 392.9 116.4 379.8 112.4C380.6 116.5 377.1 116.1 377.1 118.4C386.8 127.2 390.8 142.5 403.2 145.7C405.6 134.7 392.2 129.3 387.5 121.3ZM84.9 111.4C86.4 120.3 93.1 102 93.2 95.5C90.6 97 88 98.5 85.3 99.7C91.6 102.9 86.1 106.3 79.3 111.4C65.5 128.6 92.2 98 84.9 111.4ZM256 0C114.6 0 0 114.6 0 256C0 397.3 114.6 512 256 512C397.4 512 512 397.3 512 256C512 114.6 397.4 0 256 0ZM262.8 85.8L264 86.2C259.2 92.4 289 110.5 267.6 112C247.6 117.7 276 106.8 260.5 108.7C268.7 97.3 254 97.1 262.8 85.8ZM141.4 102.2C134.2 96.2 111.6 110.4 119.5 107C139.1 99.3 120.8 107.8 125.4 117C121.2 125.7 124 108.4 113.6 118.7C106.1 120.4 87.7 137.4 90 132.2C89.4 140.3 68.1 149.9 65.2 163.4C58.2 182.1 63.5 162.7 62.2 155.4C52.2 142.7 34 176.9 39.4 190.4C48.5 174.4 47.8 188.7 41.2 195.8C47.9 208.1 35.1 224.1 47.8 233.2C53.4 234.5 64.6 214.4 59.7 235.3C63.1 217.2 69.1 239.6 78.8 234.6C79.4 244.1 85.3 239.7 86.6 251.2C102.8 250 117.6 277.4 98.3 282.6C101.2 281.8 106.9 286.9 113.5 283C124.7 291.9 154.2 293 155 315C134.7 324.7 150 351.3 132.4 360.8C112.2 357.8 125.5 385.7 117 382.5C120.4 402.6 96.6 379.9 105.8 391C122.7 401.4 98.4 399.3 106 406.9C97.5 405.1 111.3 422.7 113.6 429.2C125.8 449 103.1 424.8 96.4 418.2C90 405.4 74.9 380.9 70.7 360.8C68.3 331.6 45.7 312 40.5 283.5C35.3 267.6 54.8 242.1 44.3 233.2C35.2 226.1 38.9 201.8 33.5 189C47 130.5 89.9 81.2 141.4 52C136.1 55.9 171.7 41.9 167.6 45.3C166.5 47.8 188.4 35.8 201.6 34C200.2 34.2 167.3 46 176.4 44.4C162.3 51.3 175 47.4 182 43.9C168 54.2 157.2 51.3 141.3 60.4C125.3 64.6 128.6 81.2 117.2 89.5C123.9 90.7 140.7 72.2 150.5 65.7C173 54.8 139.1 85.5 160.5 72.3C153.3 79 154.8 89.7 150.4 92.7C148.2 92.1 159.1 97.9 141.4 102.2ZM176.4 56.2C174.1 59.3 170.9 66 169 61.9C166.4 63.2 165.4 68.8 160.5 64.3C163.4 62.2 166.4 57.2 160.7 60.3C163.3 57.5 186.5 49.6 185.2 46.6C189.3 44 188.9 42.7 184.2 44.3C181.8 43.5 189.9 36.7 200.7 35.8C202.2 35.8 202.8 36.8 200.1 36.5C183.8 41.5 190.8 40.1 201.8 36.5C197.6 38.9 194.7 39.6 194 40.7C205 36.7 193.4 43.6 195.9 43.1C192.8 44.7 196.4 45.2 190.4 47.5C191.5 46.6 180.6 54 187.1 51.8C180.8 57.8 178 57.9 176.4 56.2ZM186 70.5C186.2 60.9 200 54.8 198.3 54.3C215.3 46.3 192.4 54.6 205.8 47.4C210.8 46.9 221.4 30.9 236.1 29.9C252.3 25 244.8 30.2 256.8 25.6L254.4 27.6C252.3 27.9 254.9 31.6 247.3 37.2C246.5 45.9 232.8 41.9 239.6 51.2C235.2 44.9 228.6 51 236.9 51.6C228 58.4 207.3 59.6 197.4 70.9C191 80.1 185.1 77.2 186 70.5ZM257.1 102.5C250.3 118.9 243.7 100.1 255.7 97.1C258.7 98.7 259.9 99.2 257.1 102.5ZM231.5 69.7C229.5 62.3 231.1 66.2 243 62.7C251.2 68.6 235.7 72.5 231.5 69.7ZM417.7 363.2C408.3 347 429.1 332 436.1 318.4C435.2 334.3 433.2 350 417.7 363.2ZM453.1 178.1C442.9 178.9 433.7 181.3 424.5 175.5C403.3 152.3 428.4 201.7 435.4 181.5C460.6 191.1 435 232.5 419.1 228.2C410.2 209 399.2 187.9 379.8 178.5C394.7 195 402.1 215.3 418.1 230.2C419.2 251 440.3 222.6 439 238.7C441 266.4 407.7 283 413.5 310.8C425.9 336.1 389.6 340.7 393.7 363.4C379.1 379.7 363.5 401.7 337.3 398.2C337.3 384.4 330.3 372.7 328.7 358.5C314.5 340.5 343.7 321.2 325.6 302.4C304.7 297.7 329.9 268.9 308.4 271.6C295.5 258.7 276.6 271.2 258.1 271.3C234.9 273.5 211 242.8 221.3 221.1C213.1 198.5 247.3 191.9 248.2 172C264.6 158.3 287.9 160 310.1 156.8C308.5 172.7 325.3 172.8 338 178.1C345.1 160.9 367.2 180.9 382.3 170C387.5 144.6 367.6 159.9 356.2 151.8C342.4 131.6 385.7 141.4 381.2 130.8C364.4 130.7 373.9 110.1 362 121.6C372.7 123.5 360.1 131.9 360.4 122.3C344.2 117.6 359.8 140.7 351.6 142.9C339.1 137.7 345 148.8 346.3 150.5C340.9 162.2 334.3 133.3 319 134.1C303.8 120.2 313 140.4 326.2 143.7C323.4 144.5 327.8 156 324.3 151.1C313.4 136.1 292.7 126.1 280.4 144.5C279.1 161.7 244.1 166.6 249.7 146.5C241.5 125.7 275.1 145.9 272 129.3C250.4 115 277.9 119.6 285.2 106.2C301.8 106.7 285.9 92.6 293.7 88.5C292.9 103.8 306.4 100.9 317.1 98C314.5 89.2 323.5 89.5 318 82.2C342.8 72.3 299.1 86.8 307.9 65.1C297.2 57.7 303.4 81.4 307.9 83.9C308.2 91.2 302 100.2 293.5 84.9C281.1 93 282.4 76.7 281.6 78.4C280.2 72.1 291 71.8 291.1 60.8C290.2 53.8 290.4 50.1 295.4 49.7C295.8 50.7 315.9 51 323 59.3C303.6 55.4 320.1 62.5 328.8 66.5C319.5 59.2 332.5 66.5 324.9 58.2C327.9 58.8 316.6 46.8 328.2 57.3C321.9 49.8 340.5 52 329.5 46.4C345.6 50.9 336.1 46.8 326.6 42.7C300.4 27.1 372.9 63.8 343.3 47.5C362.2 51.6 302.9 32.9 329.9 41.1C319.6 36.6 329.6 39.1 338.9 42C322.2 36.8 297.2 27.1 298.2 26.7C304 27.1 309.7 28.4 315.2 30C332.3 35.1 310.3 28.8 315 28.9C373.8 44 425.3 83.4 456.6 134.9C463.9 142.6 483.8 193.5 473.4 170.9C478.1 188.9 478.8 208.3 481.3 226.7C476.1 220.9 470.3 199.5 465.3 187.6C463.2 192.2 460.8 181.1 453.1 178.1Z" fill="url(#paint0_linear_38_2133)"/>
<defs>
<linearGradient id="paint0_linear_38_2133" x1="256" y1="0" x2="256" y2="512" gradientUnits="userSpaceOnUse">
<stop stop-color="#AFAFAF"/>
<stop offset="1" stop-color="#33E1BE"/>
</linearGradient>
</defs>
</svg>
