<svg width="165" height="58" viewBox="0 0 165 58" fill="none" xmlns="http://www.w3.org/2000/svg">
<path d="M27.6016 7.70312L10.6094 57H0.335938L21.7422 0.125H28.3047L27.6016 7.70312ZM41.8203 57L24.7891 7.70312L24.0469 0.125H30.6484L52.1328 57H41.8203ZM41 35.9062V43.6797H10.0625V35.9062H41ZM103.617 0.125V57H93.8125L68.3047 16.2578V57H58.5V0.125H68.3047L93.8906 40.9453V0.125H103.617ZM119.633 0.125L132.836 27.2734L146.039 0.125H156.898L137.758 36.0625V57H127.875V36.0625L108.734 0.125H119.633ZM153.969 52.3125C153.969 50.8542 154.464 49.6302 155.453 48.6406C156.443 47.625 157.784 47.1172 159.477 47.1172C161.195 47.1172 162.536 47.625 163.5 48.6406C164.49 49.6302 164.984 50.8542 164.984 52.3125C164.984 53.7708 164.49 54.9948 163.5 55.9844C162.536 56.974 161.195 57.4688 159.477 57.4688C157.784 57.4688 156.443 56.974 155.453 55.9844C154.464 54.9948 153.969 53.7708 153.969 52.3125Z" fill="#767676"/>
</svg>
